<svg width="27" height="6" viewBox="0 0 27 6" fill="none" xmlns="http://www.w3.org/2000/svg">
<path d="M5.522 4.207C5.522 4.72033 5.34233 5.14933 4.983 5.494C4.631 5.83133 4.19833 6 3.685 6H1.848C1.33467 6 0.898333 5.83133 0.539 5.494C0.179667 5.14933 0 4.72033 0 4.207V2.128C0 1.61467 0.179667 1.18933 0.539 0.852C0.898333 0.507333 1.33467 0.335 1.848 0.335H3.685C4.19833 0.335 4.631 0.507333 4.983 0.852C5.34233 1.18933 5.522 1.61467 5.522 2.128V4.207ZM4.202 4.207V2.128C4.202 1.81267 4.02967 1.655 3.685 1.655H1.848C1.496 1.655 1.32 1.81267 1.32 2.128V4.207C1.32 4.52233 1.496 4.68 1.848 4.68H3.685C4.02967 4.68 4.202 4.52233 4.202 4.207ZM11.5913 4.207C11.5913 4.72033 11.4117 5.14933 11.0523 5.494C10.7003 5.83133 10.2677 6 9.75434 6H7.91734C7.404 6 6.96767 5.83133 6.60834 5.494C6.249 5.14933 6.06934 4.72033 6.06934 4.207V2.128C6.06934 1.61467 6.249 1.18933 6.60834 0.852C6.96767 0.507333 7.404 0.335 7.91734 0.335H9.75434C10.2677 0.335 10.7003 0.507333 11.0523 0.852C11.4117 1.18933 11.5913 1.61467 11.5913 2.128V4.207ZM10.2713 4.207V2.128C10.2713 1.81267 10.099 1.655 9.75434 1.655H7.91734C7.56534 1.655 7.38934 1.81267 7.38934 2.128V4.207C7.38934 4.52233 7.56534 4.68 7.91734 4.68H9.75434C10.099 4.68 10.2713 4.52233 10.2713 4.207ZM13.7227 3.767H12.1387V2.447H13.7227V3.767ZM13.7227 6H12.1387V4.68H13.7227V6ZM20.2274 4.856H19.3144V6H17.9834V4.856H14.2764L14.2874 3.569L17.5324 0.335H19.3144V3.536H20.2274V4.856ZM17.9834 3.536V1.6L15.9374 3.536H17.9834ZM25.8756 3.129C26.3376 3.415 26.5686 3.85133 26.5686 4.438C26.5686 4.86333 26.4366 5.22267 26.1726 5.516C25.8719 5.83867 25.4723 6 24.9736 6H22.0696C21.5709 6 21.1713 5.83867 20.8706 5.516C20.6066 5.22267 20.4746 4.86333 20.4746 4.438C20.4746 3.85133 20.7019 3.415 21.1566 3.129C20.7679 2.83567 20.5736 2.425 20.5736 1.897C20.5736 1.47167 20.7056 1.11233 20.9696 0.819C21.2629 0.496333 21.6589 0.335 22.1576 0.335H24.8746C25.3733 0.335 25.7693 0.496333 26.0626 0.819C26.3266 1.11233 26.4586 1.47167 26.4586 1.897C26.4586 2.425 26.2643 2.83567 25.8756 3.129ZM24.8746 2.513C25.0653 2.513 25.1606 2.37 25.1606 2.084C25.1606 1.798 25.0653 1.655 24.8746 1.655H22.1576C21.9743 1.655 21.8826 1.798 21.8826 2.084C21.8826 2.37 21.9743 2.513 22.1576 2.513H24.8746ZM24.9736 4.68C25.1643 4.68 25.2596 4.537 25.2596 4.251C25.2596 3.965 25.1643 3.822 24.9736 3.822H22.0696C21.8789 3.822 21.7836 3.965 21.7836 4.251C21.7836 4.537 21.8789 4.68 22.0696 4.68H24.9736Z" fill="#666666"/>
</svg>
