<svg width="27" height="6" viewBox="0 0 27 6" fill="none" xmlns="http://www.w3.org/2000/svg">
<path d="M5.522 4.207C5.522 4.72033 5.34233 5.14933 4.983 5.494C4.631 5.83133 4.19833 6 3.685 6H1.848C1.33467 6 0.898333 5.83133 0.539 5.494C0.179667 5.14933 0 4.72033 0 4.207V2.128C0 1.61467 0.179667 1.18933 0.539 0.852C0.898333 0.507333 1.33467 0.335 1.848 0.335H3.685C4.19833 0.335 4.631 0.507333 4.983 0.852C5.34233 1.18933 5.522 1.61467 5.522 2.128V4.207ZM4.202 4.207V2.128C4.202 1.81267 4.02967 1.655 3.685 1.655H1.848C1.496 1.655 1.32 1.81267 1.32 2.128V4.207C1.32 4.52233 1.496 4.68 1.848 4.68H3.685C4.02967 4.68 4.202 4.52233 4.202 4.207ZM11.4813 3.129C11.9433 3.415 12.1743 3.85133 12.1743 4.438C12.1743 4.86333 12.0387 5.22267 11.7673 5.516C11.474 5.83867 11.078 6 10.5793 6H7.66434C7.16567 6 6.76967 5.83867 6.47634 5.516C6.205 5.22267 6.06934 4.86333 6.06934 4.438V4.251H7.37834C7.37834 4.537 7.47367 4.68 7.66434 4.68H10.5793C10.77 4.68 10.8653 4.537 10.8653 4.251C10.8653 3.965 10.77 3.822 10.5793 3.822H7.88434V2.513H10.4693C10.66 2.513 10.7553 2.37 10.7553 2.084C10.7553 1.798 10.66 1.655 10.4693 1.655H7.77434C7.58367 1.655 7.48834 1.80167 7.48834 2.095H6.17934V1.908C6.17934 1.48267 6.31134 1.12333 6.57534 0.83C6.86867 0.5 7.26834 0.335 7.77434 0.335H10.4693C10.9753 0.335 11.375 0.496333 11.6683 0.819C11.9323 1.11233 12.0643 1.468 12.0643 1.886C12.0643 2.42133 11.87 2.83567 11.4813 3.129ZM14.292 3.767H12.708V2.447H14.292V3.767ZM14.292 6H12.708V4.68H14.292V6ZM20.3787 4.207C20.3787 4.72033 20.199 5.14933 19.8397 5.494C19.4804 5.83133 19.044 6 18.5307 6H16.6937C16.1804 6 15.744 5.83133 15.3847 5.494C15.0254 5.14933 14.8457 4.72033 14.8457 4.207H16.1657C16.1657 4.52233 16.3417 4.68 16.6937 4.68H18.5307C18.8827 4.68 19.0587 4.52233 19.0587 4.207V3.932C19.0587 3.624 18.8827 3.47 18.5307 3.47H14.8457V0.335H20.0597V1.655H16.1657V2.15H18.5307C19.044 2.15 19.4804 2.31867 19.8397 2.656C20.199 2.99333 20.3787 3.41867 20.3787 3.932V4.207ZM26.8768 4.856H25.9638V6H24.6328V4.856H20.9258L20.9368 3.569L24.1818 0.335H25.9638V3.536H26.8768V4.856ZM24.6328 3.536V1.6L22.5868 3.536H24.6328Z" fill="#666666"/>
</svg>
