<svg width="148" height="7" viewBox="0 0 148 7" fill="none" xmlns="http://www.w3.org/2000/svg">
<path opacity="0.283157" d="M7.728 2.908C7.728 3.46 7.576 3.932 7.272 4.324C6.944 4.764 6.512 4.984 5.976 4.984H1.44V7H0V0.819999H5.976C6.512 0.819999 6.944 1.04 7.272 1.48C7.576 1.88 7.728 2.356 7.728 2.908ZM6.288 2.908C6.288 2.476 6.184 2.26 5.976 2.26H1.44V3.544H5.976C6.184 3.544 6.288 3.332 6.288 2.908ZM15.916 5.08C15.916 5.6 15.752 6.048 15.424 6.424C15.096 6.8 14.676 6.988 14.164 6.988H10.084C9.56403 6.988 9.14003 6.8 8.81203 6.424C8.49203 6.048 8.33203 5.6 8.33203 5.08V0.819999H9.77203V5.08C9.77203 5.392 9.87603 5.548 10.084 5.548H14.164C14.364 5.548 14.464 5.392 14.464 5.08V0.819999H15.916V5.08ZM22.6917 7H16.5117V0.819999H17.9517V5.56H22.6917V7ZM29.4769 7H23.2969V0.819999H24.7369V5.56H29.4769V7ZM43.666 5.08C43.666 5.6 43.502 6.048 43.174 6.424C42.846 6.8 42.426 6.988 41.914 6.988H37.834C37.314 6.988 36.89 6.8 36.562 6.424C36.242 6.048 36.082 5.6 36.082 5.08V0.819999H37.522V5.08C37.522 5.392 37.626 5.548 37.834 5.548H41.914C42.114 5.548 42.214 5.392 42.214 5.08V0.819999H43.666V5.08ZM51.9897 2.908C51.9897 3.46 51.8377 3.932 51.5337 4.324C51.2057 4.764 50.7737 4.984 50.2377 4.984H45.7017V7H44.2617V0.819999H50.2377C50.7737 0.819999 51.2057 1.04 51.5337 1.48C51.8377 1.88 51.9897 2.356 51.9897 2.908ZM50.5497 2.908C50.5497 2.476 50.4457 2.26 50.2377 2.26H45.7017V3.544H50.2377C50.4457 3.544 50.5497 3.332 50.5497 2.908ZM65.6018 2.26H62.8178V7H61.3778V2.26H58.5938V0.819999H65.6018V2.26ZM72.7052 7H71.2532V4.624H67.5572V7H66.1172V0.819999H67.5572V3.184H71.2532V0.819999H72.7052V7ZM79.8888 2.26H74.7408V3.184H79.5528V4.624H74.7408V5.56H79.8768V7H73.3008V0.819999H79.8888V2.26ZM93.8524 5.092C93.8524 5.612 93.6964 6.056 93.3844 6.424C93.0484 6.808 92.6244 7 92.1124 7H86.7844V5.56H92.1124C92.3124 5.56 92.4124 5.404 92.4124 5.092C92.4124 4.78 92.3124 4.624 92.1124 4.624H88.2364C87.7244 4.624 87.3004 4.432 86.9644 4.048C86.6444 3.688 86.4844 3.248 86.4844 2.728C86.4844 2.208 86.6484 1.76 86.9764 1.384C87.3044 1.008 87.7244 0.819999 88.2364 0.819999H93.5644V2.26H88.2364C88.0364 2.26 87.9364 2.416 87.9364 2.728C87.9364 3.032 88.0364 3.184 88.2364 3.184H92.1124C92.6244 3.184 93.0484 3.376 93.3844 3.76C93.6964 4.128 93.8524 4.572 93.8524 5.092ZM102.109 5.044C102.109 5.604 101.913 6.072 101.521 6.448C101.129 6.816 100.653 7 100.093 7H96.4691C95.9091 7 95.4331 6.816 95.0411 6.448C94.6491 6.072 94.4531 5.604 94.4531 5.044V2.776C94.4531 2.216 94.6491 1.752 95.0411 1.384C95.4331 1.008 95.9091 0.819999 96.4691 0.819999H100.093C100.653 0.819999 101.129 1.008 101.521 1.384C101.913 1.752 102.109 2.216 102.109 2.776V5.044ZM100.669 5.044V2.776C100.669 2.432 100.477 2.26 100.093 2.26H96.4691C96.0851 2.26 95.8931 2.432 95.8931 2.776V5.044C95.8931 5.388 96.0851 5.56 96.4691 5.56H100.093C100.477 5.56 100.669 5.388 100.669 5.044ZM109.303 7H107.863L104.155 2.836V7H102.715V0.819999H104.155L107.863 4.948V0.819999H109.303V7ZM116.69 7H111.914C111.354 7 110.878 6.816 110.486 6.448C110.094 6.072 109.898 5.604 109.898 5.044V2.776C109.898 2.216 110.094 1.752 110.486 1.384C110.878 1.008 111.354 0.819999 111.914 0.819999H116.69V2.26H111.914C111.53 2.26 111.338 2.432 111.338 2.776V5.044C111.338 5.388 111.53 5.56 111.914 5.56H115.25V4.624H113.294V3.184H116.69V7ZM129.473 7H123.293V0.819999H124.733V5.56H129.473V7ZM131.518 7H130.078V0.819999H131.518V7ZM139.485 5.092C139.485 5.612 139.329 6.056 139.017 6.424C138.681 6.808 138.257 7 137.745 7H132.417V5.56H137.745C137.945 5.56 138.045 5.404 138.045 5.092C138.045 4.78 137.945 4.624 137.745 4.624H133.869C133.357 4.624 132.933 4.432 132.597 4.048C132.277 3.688 132.117 3.248 132.117 2.728C132.117 2.208 132.281 1.76 132.609 1.384C132.937 1.008 133.357 0.819999 133.869 0.819999H139.197V2.26H133.869C133.669 2.26 133.569 2.416 133.569 2.728C133.569 3.032 133.669 3.184 133.869 3.184H137.745C138.257 3.184 138.681 3.376 139.017 3.76C139.329 4.128 139.485 4.572 139.485 5.092ZM147.094 2.26H144.31V7H142.87V2.26H140.086V0.819999H147.094V2.26Z" fill="#666666"/>
</svg>
