<svg width="347" height="62" viewBox="0 0 347 62" fill="none" xmlns="http://www.w3.org/2000/svg">
<path d="M1 11C1 5.47715 5.47715 1 11 1H316C332.569 1 346 14.4315 346 31C346 47.5685 332.569 61 316 61H11C5.47715 61 1 56.5228 1 51V11Z" fill="#111216"/>
<path d="M1 11C1 5.47715 5.47715 1 11 1H316C332.569 1 346 14.4315 346 31C346 47.5685 332.569 61 316 61H11C5.47715 61 1 56.5228 1 51V11Z" stroke="url(#paint0_linear_0_84)" stroke-width="2"/>
<path d="M1 11C1 5.47715 5.47715 1 11 1H316C332.569 1 346 14.4315 346 31C346 47.5685 332.569 61 316 61H11C5.47715 61 1 56.5228 1 51V11Z" stroke="url(#paint1_linear_0_84)" stroke-width="2"/>
<defs>
<linearGradient id="paint0_linear_0_84" x1="5.7942" y1="2.66755" x2="5.7942" y2="61" gradientUnits="userSpaceOnUse">
<stop/>
<stop offset="1" stop-color="#383B46"/>
</linearGradient>
<linearGradient id="paint1_linear_0_84" x1="346" y1="46" x2="217" y2="6" gradientUnits="userSpaceOnUse">
<stop stop-color="#FF611A" stop-opacity="0.5"/>
<stop offset="1" stop-color="#FF611A" stop-opacity="0"/>
</linearGradient>
</defs>
</svg>
