<svg width="167" height="13" viewBox="0 0 167 13" fill="none" xmlns="http://www.w3.org/2000/svg">
<path d="M14.1098 3.52H8.54175V13H5.66175V3.52H0.09375V0.639999H14.1098V3.52ZM30.3566 13H27.4286V8.248H18.0206V13H15.1406V0.639999H18.0206V5.368H27.4286V0.639999H30.3566V13ZM44.7229 3.52H34.4269V5.368H44.0509V8.248H34.4269V10.12H44.6989V13H31.5469V0.639999H44.7229V3.52ZM73.9461 13H71.0661V5.464L65.9301 12.784L60.7941 5.464V13H57.9141V0.639999H60.9381L65.9301 7.768L70.9461 0.639999H73.9461V13ZM90.4526 9.088C90.4526 10.208 90.0606 11.144 89.2766 11.896C88.4926 12.632 87.5406 13 86.4206 13H79.1726C78.0526 13 77.1006 12.632 76.3166 11.896C75.5326 11.144 75.1406 10.208 75.1406 9.088V4.552C75.1406 3.432 75.5326 2.504 76.3166 1.768C77.1006 1.016 78.0526 0.639999 79.1726 0.639999H86.4206C87.5406 0.639999 88.4926 1.016 89.2766 1.768C90.0606 2.504 90.4526 3.432 90.4526 4.552V9.088ZM87.5726 9.088V4.552C87.5726 3.864 87.1886 3.52 86.4206 3.52H79.1726C78.4046 3.52 78.0206 3.864 78.0206 4.552V9.088C78.0206 9.776 78.4046 10.12 79.1726 10.12H86.4206C87.1886 10.12 87.5726 9.776 87.5726 9.088ZM104.84 13H101.96L94.5441 4.672V13H91.6641V0.639999H94.5441L101.96 8.896V0.639999H104.84V13ZM120.767 9.184C120.767 10.224 120.455 11.112 119.831 11.848C119.159 12.616 118.311 13 117.287 13H106.631V10.12H117.287C117.687 10.12 117.887 9.808 117.887 9.184C117.887 8.56 117.687 8.248 117.287 8.248H109.535C108.511 8.248 107.663 7.864 106.991 7.096C106.351 6.376 106.031 5.496 106.031 4.456C106.031 3.416 106.359 2.52 107.015 1.768C107.671 1.016 108.511 0.639999 109.535 0.639999H120.191V3.52H109.535C109.135 3.52 108.935 3.832 108.935 4.456C108.935 5.064 109.135 5.368 109.535 5.368H117.287C118.311 5.368 119.159 5.752 119.831 6.52C120.455 7.256 120.767 8.144 120.767 9.184ZM135.649 3.52H130.081V13H127.201V3.52H121.633V0.639999H135.649V3.52ZM150.028 3.52H139.732V5.368H149.356V8.248H139.732V10.12H150.004V13H136.852V0.639999H150.028V3.52ZM165.715 13H161.779L155.611 6.064H163.027C163.555 6.064 163.819 5.64 163.819 4.792C163.819 3.944 163.555 3.52 163.027 3.52H154.099V13H151.219V0.639999H163.195C164.299 0.639999 165.171 1.072 165.811 1.936C166.403 2.72 166.699 3.672 166.699 4.792C166.699 5.912 166.403 6.864 165.811 7.648C165.171 8.512 164.299 8.944 163.195 8.944H162.091L165.715 13Z" fill="#999999"/>
</svg>
