<svg width="262" height="98" viewBox="0 0 262 98" fill="none" xmlns="http://www.w3.org/2000/svg">
<path opacity="0.801316" d="M54.2535 58.76L51.2935 67H49.6295L47.7255 61.672L45.8215 67H44.1415L41.1815 58.76H43.2295L44.9735 63.672L46.6855 58.76H48.7655L48.7335 58.824L50.4455 63.672L52.2215 58.76H54.2535ZM63.5809 60.68H56.7169V61.912H63.1329V63.832H56.7169V65.08H63.5649V67H54.7969V58.76H63.5809V60.68ZM72.615 67H64.375V58.76H66.295V65.08H72.615V67ZM81.6619 67H73.4219V58.76H75.3419V65.08H81.6619V67ZM84.7728 65.08L83.8288 69.256H82.4688V65.08H84.7728ZM94.6981 60.68H90.9861V67H89.0661V60.68H85.3541V58.76H94.6981V60.68ZM105.644 67H103.692V63.832H97.42V67H95.5V58.76H97.42V61.912H103.692V58.76H105.644V67ZM116.534 67H114.614V64.376H109.558V62.456H114.614V61.304C114.614 60.888 114.475 60.68 114.198 60.68H108.758C108.491 60.68 108.358 60.888 108.358 61.304V67H106.438V61.304C106.438 60.6107 106.651 60.0133 107.078 59.512C107.515 59.0107 108.075 58.76 108.758 58.76H114.198C114.891 58.76 115.451 59.0107 115.878 59.512C116.315 60.0133 116.534 60.6107 116.534 61.304V67ZM126.448 60.68H122.736V67H120.816V60.68H117.104V58.76H126.448V60.68ZM129.554 58.776L128.61 62.952H127.25V58.776H129.554ZM140.183 64.456C140.183 65.1493 139.975 65.7413 139.559 66.232C139.111 66.744 138.546 67 137.863 67H130.759V65.08H137.863C138.13 65.08 138.263 64.872 138.263 64.456C138.263 64.04 138.13 63.832 137.863 63.832H132.695C132.013 63.832 131.447 63.576 130.999 63.064C130.573 62.584 130.359 61.9973 130.359 61.304C130.359 60.6107 130.578 60.0133 131.015 59.512C131.453 59.0107 132.013 58.76 132.695 58.76H139.799V60.68H132.695C132.429 60.68 132.295 60.888 132.295 61.304C132.295 61.7093 132.429 61.912 132.695 61.912H137.863C138.546 61.912 139.111 62.168 139.559 62.68C139.975 63.1707 140.183 63.7627 140.183 64.456ZM157.768 67H155.848L150.904 61.448V67H148.984V58.76H150.904L155.848 64.264V58.76H157.768V67ZM168.771 64.392C168.771 65.1387 168.509 65.7627 167.987 66.264C167.464 66.7547 166.829 67 166.083 67H161.251C160.504 67 159.869 66.7547 159.347 66.264C158.824 65.7627 158.562 65.1387 158.562 64.392V61.368C158.562 60.6213 158.824 60.0027 159.347 59.512C159.869 59.0107 160.504 58.76 161.251 58.76H166.083C166.829 58.76 167.464 59.0107 167.987 59.512C168.509 60.0027 168.771 60.6213 168.771 61.368V64.392ZM166.851 64.392V61.368C166.851 60.9093 166.595 60.68 166.083 60.68H161.251C160.739 60.68 160.483 60.9093 160.483 61.368V64.392C160.483 64.8507 160.739 65.08 161.251 65.08H166.083C166.595 65.08 166.851 64.8507 166.851 64.392ZM178.698 60.68H174.986V67H173.066V60.68H169.354V58.76H178.698V60.68ZM196.284 60.68H189.436V61.912H195.852V63.832H189.436V67H187.5V58.76H196.284V60.68ZM206.924 67H205.004V64.376H199.948V62.456H205.004V61.304C205.004 60.888 204.865 60.68 204.588 60.68H199.148C198.881 60.68 198.748 60.888 198.748 61.304V67H196.828V61.304C196.828 60.6107 197.041 60.0133 197.468 59.512C197.905 59.0107 198.465 58.76 199.148 58.76H204.588C205.281 58.76 205.841 59.0107 206.268 59.512C206.705 60.0133 206.924 60.6107 206.924 61.304V67ZM209.639 67H207.719V58.76H209.639V67ZM220.102 67H217.478L213.366 62.376H218.31C218.662 62.376 218.838 62.0933 218.838 61.528C218.838 60.9627 218.662 60.68 218.31 60.68H212.358V67H210.438V58.76H218.422C219.158 58.76 219.739 59.048 220.166 59.624C220.56 60.1467 220.758 60.7813 220.758 61.528C220.758 62.2747 220.56 62.9093 220.166 63.432C219.739 64.008 219.158 64.296 218.422 64.296H217.686L220.102 67Z" fill="#666666"/>
<path opacity="0.140578" d="M60.4093 87.79L57.8193 95H56.3633L54.6973 90.338L53.0313 95H51.5613L48.9713 87.79H50.7633L52.2893 92.088L53.7873 87.79H55.6073L55.5793 87.846L57.0773 92.088L58.6313 87.79H60.4093ZM68.5708 89.47H62.5648V90.548H68.1788V92.228H62.5648V93.32H68.5568V95H60.8848V87.79H68.5708V89.47ZM76.4756 95H69.2656V87.79H70.9456V93.32H76.4756V95ZM84.3916 95H77.1816V87.79H78.8616V93.32H84.3916V95ZM87.1137 93.32L86.2877 96.974H85.0977V93.32H87.1137ZM102.798 89.47H99.5504V95H97.8704V89.47H94.6224V87.79H102.798V89.47ZM112.376 95H110.668V92.228H105.18V95H103.5V87.79H105.18V90.548H110.668V87.79H112.376V95ZM121.904 95H120.224V92.704H115.8V91.024H120.224V90.016C120.224 89.652 120.103 89.47 119.86 89.47H115.1C114.867 89.47 114.75 89.652 114.75 90.016V95H113.07V90.016C113.07 89.4093 113.257 88.8867 113.63 88.448C114.013 88.0093 114.503 87.79 115.1 87.79H119.86C120.467 87.79 120.957 88.0093 121.33 88.448C121.713 88.8867 121.904 89.4093 121.904 90.016V95ZM130.58 89.47H127.332V95H125.652V89.47H122.404V87.79H130.58V89.47ZM133.297 87.804L132.471 91.458H131.281V87.804H133.297ZM142.598 92.774C142.598 93.3807 142.416 93.8987 142.052 94.328C141.66 94.776 141.165 95 140.568 95H134.352V93.32H140.568C140.801 93.32 140.918 93.138 140.918 92.774C140.918 92.41 140.801 92.228 140.568 92.228H136.046C135.449 92.228 134.954 92.004 134.562 91.556C134.189 91.136 134.002 90.6227 134.002 90.016C134.002 89.4093 134.193 88.8867 134.576 88.448C134.959 88.0093 135.449 87.79 136.046 87.79H142.262V89.47H136.046C135.813 89.47 135.696 89.652 135.696 90.016C135.696 90.3707 135.813 90.548 136.046 90.548H140.568C141.165 90.548 141.66 90.772 142.052 91.22C142.416 91.6493 142.598 92.1673 142.598 92.774ZM157.985 95H156.305L151.979 90.142V95H150.299V87.79H151.979L156.305 92.606V87.79H157.985V95ZM167.612 92.718C167.612 93.3713 167.383 93.9173 166.926 94.356C166.468 94.7853 165.913 95 165.26 95H161.032C160.378 95 159.823 94.7853 159.366 94.356C158.908 93.9173 158.68 93.3713 158.68 92.718V90.072C158.68 89.4187 158.908 88.8773 159.366 88.448C159.823 88.0093 160.378 87.79 161.032 87.79H165.26C165.913 87.79 166.468 88.0093 166.926 88.448C167.383 88.8773 167.612 89.4187 167.612 90.072V92.718ZM165.932 92.718V90.072C165.932 89.6707 165.708 89.47 165.26 89.47H161.032C160.584 89.47 160.36 89.6707 160.36 90.072V92.718C160.36 93.1193 160.584 93.32 161.032 93.32H165.26C165.708 93.32 165.932 93.1193 165.932 92.718ZM176.298 89.47H173.05V95H171.37V89.47H168.122V87.79H176.298V89.47ZM191.686 89.47H185.694V90.548H191.308V92.228H185.694V95H184V87.79H191.686V89.47ZM200.996 95H199.316V92.704H194.892V91.024H199.316V90.016C199.316 89.652 199.195 89.47 198.952 89.47H194.192C193.959 89.47 193.842 89.652 193.842 90.016V95H192.162V90.016C192.162 89.4093 192.349 88.8867 192.722 88.448C193.105 88.0093 193.595 87.79 194.192 87.79H198.952C199.559 87.79 200.049 88.0093 200.422 88.448C200.805 88.8867 200.996 89.4093 200.996 90.016V95ZM203.371 95H201.691V87.79H203.371V95ZM212.526 95H210.23L206.632 90.954H210.958C211.266 90.954 211.42 90.7067 211.42 90.212C211.42 89.7173 211.266 89.47 210.958 89.47H205.75V95H204.07V87.79H211.056C211.7 87.79 212.209 88.042 212.582 88.546C212.928 89.0033 213.1 89.5587 213.1 90.212C213.1 90.8653 212.928 91.4207 212.582 91.878C212.209 92.382 211.7 92.634 211.056 92.634H210.412L212.526 95Z" fill="#666666"/>
<path opacity="0.301037" d="M37.6429 13H35.7229V10.376H30.6669V8.456H35.7229V7.304C35.7229 6.888 35.5842 6.68 35.3069 6.68H29.8669C29.6002 6.68 29.4669 6.888 29.4669 7.304V13H27.5469V7.304C27.5469 6.61067 27.7602 6.01333 28.1869 5.512C28.6242 5.01067 29.1842 4.76 29.8669 4.76H35.3069C36.0002 4.76 36.5602 5.01067 36.9869 5.512C37.4242 6.01333 37.6429 6.61067 37.6429 7.304V13ZM47.2215 13H45.3015L40.3575 7.448V13H38.4375V4.76H40.3575L45.3015 10.264V4.76H47.2215V13ZM57.0396 10.392C57.0396 11.1387 56.7783 11.7627 56.2556 12.264C55.7436 12.7547 55.1143 13 54.3676 13H48.0156V7.8H49.9356V11.08H54.3676C54.8583 11.08 55.1036 10.8507 55.1036 10.392V7.368C55.1036 6.90933 54.8583 6.68 54.3676 6.68H48.0156V4.76H54.3676C55.1143 4.76 55.7436 5.01067 56.2556 5.512C56.7783 6.00267 57.0396 6.62133 57.0396 7.368V10.392ZM75.9238 7.304C75.9238 7.99733 75.7158 8.584 75.2998 9.064C74.8518 9.576 74.2864 9.832 73.6038 9.832H71.8598V13H69.9398V9.832H68.1638C67.4811 9.832 66.9211 9.576 66.4838 9.064C66.0571 8.584 65.8438 7.99733 65.8438 7.304V4.76H67.7638V7.304C67.7638 7.70933 67.8971 7.912 68.1638 7.912H73.6038C73.8704 7.912 74.0038 7.70933 74.0038 7.304V4.76H75.9238V7.304ZM86.9268 10.392C86.9268 11.1387 86.6654 11.7627 86.1428 12.264C85.6201 12.7547 84.9854 13 84.2388 13H79.4068C78.6601 13 78.0254 12.7547 77.5028 12.264C76.9801 11.7627 76.7188 11.1387 76.7188 10.392V7.368C76.7188 6.62133 76.9801 6.00267 77.5028 5.512C78.0254 5.01067 78.6601 4.76 79.4068 4.76H84.2388C84.9854 4.76 85.6201 5.01067 86.1428 5.512C86.6654 6.00267 86.9268 6.62133 86.9268 7.368V10.392ZM85.0068 10.392V7.368C85.0068 6.90933 84.7508 6.68 84.2388 6.68H79.4068C78.8948 6.68 78.6388 6.90933 78.6388 7.368V10.392C78.6388 10.8507 78.8948 11.08 79.4068 11.08H84.2388C84.7508 11.08 85.0068 10.8507 85.0068 10.392ZM97.8464 10.44C97.8464 11.1333 97.6277 11.7307 97.1904 12.232C96.753 12.7333 96.193 12.984 95.5104 12.984H90.0704C89.377 12.984 88.8117 12.7333 88.3744 12.232C87.9477 11.7307 87.7344 11.1333 87.7344 10.44V4.76H89.6544V10.44C89.6544 10.856 89.793 11.064 90.0704 11.064H95.5104C95.777 11.064 95.9104 10.856 95.9104 10.44V4.76H97.8464V10.44ZM115.761 6.68H112.049V13H110.129V6.68H106.417V4.76H115.761V6.68ZM126.707 13H124.755V9.832H118.483V13H116.562V4.76H118.483V7.912H124.755V4.76H126.707V13ZM129.42 13H127.5V4.76H129.42V13ZM139.003 13H137.083L132.139 7.448V13H130.219V4.76H132.139L137.083 10.264V4.76H139.003V13ZM149.461 13H146.837L142.725 8.888L146.549 4.76H149.173L145.317 8.888L149.461 13ZM141.717 13H139.797V4.76H141.717V13ZM159.701 13H157.781V4.76H159.701V13ZM162.804 4.776L161.86 8.952H160.5V4.776H162.804ZM174.297 13H172.377V7.976L168.953 12.856L165.529 7.976V13H163.609V4.76H165.625L168.953 9.512L172.297 4.76H174.297V13ZM192.15 13H185.782C185.035 13 184.4 12.7547 183.878 12.264C183.355 11.7627 183.094 11.1387 183.094 10.392V7.368C183.094 6.62133 183.355 6.00267 183.878 5.512C184.4 5.01067 185.035 4.76 185.782 4.76H192.15V6.68H185.782C185.27 6.68 185.014 6.90933 185.014 7.368V10.392C185.014 10.8507 185.27 11.08 185.782 11.08H192.15V13ZM202.617 13H199.993L195.881 8.376H200.825C201.177 8.376 201.353 8.09333 201.353 7.528C201.353 6.96267 201.177 6.68 200.825 6.68H194.873V13H192.953V4.76H200.937C201.673 4.76 202.254 5.048 202.681 5.624C203.076 6.14667 203.273 6.78133 203.273 7.528C203.273 8.27467 203.076 8.90933 202.681 9.432C202.254 10.008 201.673 10.296 200.937 10.296H200.201L202.617 13ZM214.174 13H212.254V10.376H207.198V8.456H212.254V7.304C212.254 6.888 212.115 6.68 211.838 6.68H206.398C206.131 6.68 205.998 6.888 205.998 7.304V13H204.078V7.304C204.078 6.61067 204.291 6.01333 204.718 5.512C205.155 5.01067 205.715 4.76 206.398 4.76H211.838C212.531 4.76 213.091 5.01067 213.518 5.512C213.955 6.01333 214.174 6.61067 214.174 7.304V13ZM223.785 13H214.969V11.08L220.585 6.68H214.969V4.76H223.625L223.593 6.648L218.073 11.08H223.785V13ZM234.658 7.304C234.658 7.99733 234.45 8.584 234.034 9.064C233.586 9.576 233.021 9.832 232.338 9.832H230.594V13H228.674V9.832H226.898C226.215 9.832 225.655 9.576 225.218 9.064C224.791 8.584 224.578 7.99733 224.578 7.304V4.76H226.498V7.304C226.498 7.70933 226.631 7.912 226.898 7.912H232.338C232.605 7.912 232.738 7.70933 232.738 7.304V4.76H234.658V7.304Z" fill="#666666"/>
<g filter="url(#filter0_f_101_8)">
<path d="M17.4025 33.592C17.4025 34.372 17.1685 35.032 16.7005 35.572C16.1965 36.148 15.5605 36.436 14.7925 36.436H12.8305V40H10.6705V36.436H8.6725C7.9045 36.436 7.2745 36.148 6.7825 35.572C6.3025 35.032 6.0625 34.372 6.0625 33.592V30.73H8.2225V33.592C8.2225 34.048 8.3725 34.276 8.6725 34.276H14.7925C15.0925 34.276 15.2425 34.048 15.2425 33.592V30.73H17.4025V33.592ZM28.1789 32.89H20.4569V34.276H27.6749V36.436H20.4569V37.84H28.1609V40H18.2969V30.73H28.1789V32.89ZM40.4303 40H38.2703V37.048H32.5823V34.888H38.2703V33.592C38.2703 33.124 38.1143 32.89 37.8023 32.89H31.6823C31.3823 32.89 31.2323 33.124 31.2323 33.592V40H29.0723V33.592C29.0723 32.812 29.3123 32.14 29.7923 31.576C30.2843 31.012 30.9143 30.73 31.6823 30.73H37.8023C38.5823 30.73 39.2123 31.012 39.6923 31.576C40.1843 32.14 40.4303 32.812 40.4303 33.592V40ZM52.7362 40H50.5402V36.436H43.4842V40H41.3242V30.73H43.4842V34.276H50.5402V30.73H52.7362V40ZM56.2209 37.84L55.1589 42.538H53.6289V37.84H56.2209ZM77.467 33.592C77.467 34.372 77.233 35.032 76.765 35.572C76.261 36.148 75.625 36.436 74.857 36.436H72.895V40H70.735V36.436H68.737C67.969 36.436 67.339 36.148 66.847 35.572C66.367 35.032 66.127 34.372 66.127 33.592V30.73H68.287V33.592C68.287 34.048 68.437 34.276 68.737 34.276H74.857C75.157 34.276 75.307 34.048 75.307 33.592V30.73H77.467V33.592ZM89.8453 37.066C89.8453 37.906 89.5513 38.608 88.9633 39.172C88.3753 39.724 87.6613 40 86.8213 40H81.3853C80.5453 40 79.8313 39.724 79.2433 39.172C78.6553 38.608 78.3613 37.906 78.3613 37.066V33.664C78.3613 32.824 78.6553 32.128 79.2433 31.576C79.8313 31.012 80.5453 30.73 81.3853 30.73H86.8213C87.6613 30.73 88.3753 31.012 88.9633 31.576C89.5513 32.128 89.8453 32.824 89.8453 33.664V37.066ZM87.6853 37.066V33.664C87.6853 33.148 87.3973 32.89 86.8213 32.89H81.3853C80.8093 32.89 80.5213 33.148 80.5213 33.664V37.066C80.5213 37.582 80.8093 37.84 81.3853 37.84H86.8213C87.3973 37.84 87.6853 37.582 87.6853 37.066ZM102.13 37.12C102.13 37.9 101.884 38.572 101.392 39.136C100.9 39.7 100.27 39.982 99.5019 39.982H93.3819C92.6019 39.982 91.9659 39.7 91.4739 39.136C90.9939 38.572 90.7539 37.9 90.7539 37.12V30.73H92.9139V37.12C92.9139 37.588 93.0699 37.822 93.3819 37.822H99.5019C99.8019 37.822 99.9519 37.588 99.9519 37.12V30.73H102.13V37.12ZM122.283 32.89H118.107V40H115.947V32.89H111.771V30.73H122.283V32.89ZM134.598 40H132.402V36.436H125.346V40H123.186V30.73H125.346V34.276H132.402V30.73H134.598V40ZM137.65 40H135.49V30.73H137.65V40ZM148.431 40H146.271L140.709 33.754V40H138.549V30.73H140.709L146.271 36.922V30.73H148.431V40ZM160.196 40H157.244L152.618 35.374L156.92 30.73H159.872L155.534 35.374L160.196 40ZM151.484 40H149.324V30.73H151.484V40ZM171.717 40H169.557V30.73H171.717V40ZM175.207 30.748L174.145 35.446H172.615V30.748H175.207ZM188.137 40H185.977V34.348L182.125 39.838L178.273 34.348V40H176.113V30.73H178.381L182.125 36.076L185.887 30.73H188.137V40ZM208.221 40H201.057C200.217 40 199.503 39.724 198.915 39.172C198.327 38.608 198.033 37.906 198.033 37.066V33.664C198.033 32.824 198.327 32.128 198.915 31.576C199.503 31.012 200.217 30.73 201.057 30.73H208.221V32.89H201.057C200.481 32.89 200.193 33.148 200.193 33.664V37.066C200.193 37.582 200.481 37.84 201.057 37.84H208.221V40ZM219.997 40H217.045L212.419 34.798H217.981C218.377 34.798 218.575 34.48 218.575 33.844C218.575 33.208 218.377 32.89 217.981 32.89H211.285V40H209.125V30.73H218.107C218.935 30.73 219.589 31.054 220.069 31.702C220.513 32.29 220.735 33.004 220.735 33.844C220.735 34.684 220.513 35.398 220.069 35.986C219.589 36.634 218.935 36.958 218.107 36.958H217.279L219.997 40ZM232.999 40H230.839V37.048H225.151V34.888H230.839V33.592C230.839 33.124 230.683 32.89 230.371 32.89H224.251C223.951 32.89 223.801 33.124 223.801 33.592V40H221.641V33.592C221.641 32.812 221.881 32.14 222.361 31.576C222.853 31.012 223.483 30.73 224.251 30.73H230.371C231.151 30.73 231.781 31.012 232.261 31.576C232.753 32.14 232.999 32.812 232.999 33.592V40ZM243.811 40H233.893V37.84L240.211 32.89H233.893V30.73H243.631L243.595 32.854L237.385 37.84H243.811V40ZM256.043 33.592C256.043 34.372 255.809 35.032 255.341 35.572C254.837 36.148 254.201 36.436 253.433 36.436H251.471V40H249.311V36.436H247.313C246.545 36.436 245.915 36.148 245.423 35.572C244.943 35.032 244.703 34.372 244.703 33.592V30.73H246.863V33.592C246.863 34.048 247.013 34.276 247.313 34.276H253.433C253.733 34.276 253.883 34.048 253.883 33.592V30.73H256.043V33.592Z" fill="#E34715"/>
</g>
<path d="M17.4025 33.592C17.4025 34.372 17.1685 35.032 16.7005 35.572C16.1965 36.148 15.5605 36.436 14.7925 36.436H12.8305V40H10.6705V36.436H8.6725C7.9045 36.436 7.2745 36.148 6.7825 35.572C6.3025 35.032 6.0625 34.372 6.0625 33.592V30.73H8.2225V33.592C8.2225 34.048 8.3725 34.276 8.6725 34.276H14.7925C15.0925 34.276 15.2425 34.048 15.2425 33.592V30.73H17.4025V33.592ZM28.1789 32.89H20.4569V34.276H27.6749V36.436H20.4569V37.84H28.1609V40H18.2969V30.73H28.1789V32.89ZM40.4303 40H38.2703V37.048H32.5823V34.888H38.2703V33.592C38.2703 33.124 38.1143 32.89 37.8023 32.89H31.6823C31.3823 32.89 31.2323 33.124 31.2323 33.592V40H29.0723V33.592C29.0723 32.812 29.3123 32.14 29.7923 31.576C30.2843 31.012 30.9143 30.73 31.6823 30.73H37.8023C38.5823 30.73 39.2123 31.012 39.6923 31.576C40.1843 32.14 40.4303 32.812 40.4303 33.592V40ZM52.7362 40H50.5402V36.436H43.4842V40H41.3242V30.73H43.4842V34.276H50.5402V30.73H52.7362V40ZM56.2209 37.84L55.1589 42.538H53.6289V37.84H56.2209ZM77.467 33.592C77.467 34.372 77.233 35.032 76.765 35.572C76.261 36.148 75.625 36.436 74.857 36.436H72.895V40H70.735V36.436H68.737C67.969 36.436 67.339 36.148 66.847 35.572C66.367 35.032 66.127 34.372 66.127 33.592V30.73H68.287V33.592C68.287 34.048 68.437 34.276 68.737 34.276H74.857C75.157 34.276 75.307 34.048 75.307 33.592V30.73H77.467V33.592ZM89.8453 37.066C89.8453 37.906 89.5513 38.608 88.9633 39.172C88.3753 39.724 87.6613 40 86.8213 40H81.3853C80.5453 40 79.8313 39.724 79.2433 39.172C78.6553 38.608 78.3613 37.906 78.3613 37.066V33.664C78.3613 32.824 78.6553 32.128 79.2433 31.576C79.8313 31.012 80.5453 30.73 81.3853 30.73H86.8213C87.6613 30.73 88.3753 31.012 88.9633 31.576C89.5513 32.128 89.8453 32.824 89.8453 33.664V37.066ZM87.6853 37.066V33.664C87.6853 33.148 87.3973 32.89 86.8213 32.89H81.3853C80.8093 32.89 80.5213 33.148 80.5213 33.664V37.066C80.5213 37.582 80.8093 37.84 81.3853 37.84H86.8213C87.3973 37.84 87.6853 37.582 87.6853 37.066ZM102.13 37.12C102.13 37.9 101.884 38.572 101.392 39.136C100.9 39.7 100.27 39.982 99.5019 39.982H93.3819C92.6019 39.982 91.9659 39.7 91.4739 39.136C90.9939 38.572 90.7539 37.9 90.7539 37.12V30.73H92.9139V37.12C92.9139 37.588 93.0699 37.822 93.3819 37.822H99.5019C99.8019 37.822 99.9519 37.588 99.9519 37.12V30.73H102.13V37.12ZM122.283 32.89H118.107V40H115.947V32.89H111.771V30.73H122.283V32.89ZM134.598 40H132.402V36.436H125.346V40H123.186V30.73H125.346V34.276H132.402V30.73H134.598V40ZM137.65 40H135.49V30.73H137.65V40ZM148.431 40H146.271L140.709 33.754V40H138.549V30.73H140.709L146.271 36.922V30.73H148.431V40ZM160.196 40H157.244L152.618 35.374L156.92 30.73H159.872L155.534 35.374L160.196 40ZM151.484 40H149.324V30.73H151.484V40ZM171.717 40H169.557V30.73H171.717V40ZM175.207 30.748L174.145 35.446H172.615V30.748H175.207ZM188.137 40H185.977V34.348L182.125 39.838L178.273 34.348V40H176.113V30.73H178.381L182.125 36.076L185.887 30.73H188.137V40ZM208.221 40H201.057C200.217 40 199.503 39.724 198.915 39.172C198.327 38.608 198.033 37.906 198.033 37.066V33.664C198.033 32.824 198.327 32.128 198.915 31.576C199.503 31.012 200.217 30.73 201.057 30.73H208.221V32.89H201.057C200.481 32.89 200.193 33.148 200.193 33.664V37.066C200.193 37.582 200.481 37.84 201.057 37.84H208.221V40ZM219.997 40H217.045L212.419 34.798H217.981C218.377 34.798 218.575 34.48 218.575 33.844C218.575 33.208 218.377 32.89 217.981 32.89H211.285V40H209.125V30.73H218.107C218.935 30.73 219.589 31.054 220.069 31.702C220.513 32.29 220.735 33.004 220.735 33.844C220.735 34.684 220.513 35.398 220.069 35.986C219.589 36.634 218.935 36.958 218.107 36.958H217.279L219.997 40ZM232.999 40H230.839V37.048H225.151V34.888H230.839V33.592C230.839 33.124 230.683 32.89 230.371 32.89H224.251C223.951 32.89 223.801 33.124 223.801 33.592V40H221.641V33.592C221.641 32.812 221.881 32.14 222.361 31.576C222.853 31.012 223.483 30.73 224.251 30.73H230.371C231.151 30.73 231.781 31.012 232.261 31.576C232.753 32.14 232.999 32.812 232.999 33.592V40ZM243.811 40H233.893V37.84L240.211 32.89H233.893V30.73H243.631L243.595 32.854L237.385 37.84H243.811V40ZM256.043 33.592C256.043 34.372 255.809 35.032 255.341 35.572C254.837 36.148 254.201 36.436 253.433 36.436H251.471V40H249.311V36.436H247.313C246.545 36.436 245.915 36.148 245.423 35.572C244.943 35.032 244.703 34.372 244.703 33.592V30.73H246.863V33.592C246.863 34.048 247.013 34.276 247.313 34.276H253.433C253.733 34.276 253.883 34.048 253.883 33.592V30.73H256.043V33.592Z" fill="#E34715"/>
<defs>
<filter id="filter0_f_101_8" x="0.625937" y="25.2934" width="260.854" height="22.6811" filterUnits="userSpaceOnUse" color-interpolation-filters="sRGB">
<feFlood flood-opacity="0" result="BackgroundImageFix"/>
<feBlend mode="normal" in="SourceGraphic" in2="BackgroundImageFix" result="shape"/>
<feGaussianBlur stdDeviation="2.71828" result="effect1_foregroundBlur_101_8"/>
</filter>
</defs>
</svg>
