<svg width="120" height="8" viewBox="0 0 120 8" fill="none" xmlns="http://www.w3.org/2000/svg">
<path opacity="0.497861" d="M7.94674 2.47H1.94074V3.548H7.55474V5.228H1.94074V6.32H7.93274V8H0.260742V0.789999H7.94674V2.47ZM17.9936 8H16.3136V3.604L13.3176 7.874L10.3216 3.604V8H8.6416V0.789999H10.4056L13.3176 4.948L16.2436 0.789999H17.9936V8ZM20.3704 8H18.6904V0.789999H20.3704V8ZM28.7553 8H27.0753L22.7493 3.142V8H21.0693V0.789999H22.7493L27.0753 5.606V0.789999H28.7553V8ZM37.1362 2.47H31.1302V3.548H36.7442V5.228H31.1302V6.32H37.1222V8H29.4502V0.789999H37.1362V2.47ZM47.1831 8H45.5031V3.604L42.5071 7.874L39.5111 3.604V8H37.8311V0.789999H39.5951L42.5071 4.948L45.4331 0.789999H47.1831V8ZM54.5299 0.789999L49.5599 8H47.8799L52.8499 0.789999H54.5299ZM70.6914 8H68.3954L64.7974 3.954H69.1234C69.4314 3.954 69.5854 3.70667 69.5854 3.212C69.5854 2.71733 69.4314 2.47 69.1234 2.47H63.9154V8H62.2354V0.789999H69.2214C69.8654 0.789999 70.374 1.042 70.7474 1.546C71.0927 2.00333 71.2654 2.55867 71.2654 3.212C71.2654 3.86533 71.0927 4.42067 70.7474 4.878C70.374 5.382 69.8654 5.634 69.2214 5.634H68.5774L70.6914 8ZM73.6497 8H71.9697V0.789999H73.6497V8ZM83.2246 8H81.5166V5.228H76.0286V8H74.3486V0.789999H76.0286V3.548H81.5166V0.789999H83.2246V8ZM92.7529 8H91.0729V5.704H86.6489V4.024H91.0729V3.016C91.0729 2.652 90.9516 2.47 90.7089 2.47H85.9489C85.7156 2.47 85.5989 2.652 85.5989 3.016V8H83.9189V3.016C83.9189 2.40933 84.1056 1.88667 84.4789 1.448C84.8616 1.00933 85.3516 0.789999 85.9489 0.789999H90.7089C91.3156 0.789999 91.8056 1.00933 92.1789 1.448C92.5616 1.88667 92.7529 2.40933 92.7529 3.016V8ZM101.134 8H99.4542L95.1282 3.142V8H93.4482V0.789999H95.1282L99.4542 5.606V0.789999H101.134V8ZM109.515 8H107.835L103.509 3.142V8H101.829V0.789999H103.509L107.835 5.606V0.789999H109.515V8ZM119.044 8H117.364V5.704H112.94V4.024H117.364V3.016C117.364 2.652 117.243 2.47 117 2.47H112.24C112.007 2.47 111.89 2.652 111.89 3.016V8H110.21V3.016C110.21 2.40933 110.397 1.88667 110.77 1.448C111.153 1.00933 111.643 0.789999 112.24 0.789999H117C117.607 0.789999 118.097 1.00933 118.47 1.448C118.853 1.88667 119.044 2.40933 119.044 3.016V8Z" fill="#666666"/>
</svg>
